<svg width="1450" height="1080" viewBox="0 0 1450 1080" fill="none" xmlns="http://www.w3.org/2000/svg">
<path fill-rule="evenodd" clip-rule="evenodd" d="M682.864 -231.919C841.399 -210.125 870.908 16.9713 996.549 116.176C1113.77 208.734 1304.58 193.399 1382.77 320.72C1465.63 455.672 1467.49 637.558 1406.45 783.706C1347.3 925.329 1190.62 986.787 1066.77 1077.3C942.554 1168.09 836.351 1322.45 682.864 1312.55C529.655 1302.65 453.291 1125.85 333.32 1029.95C221.093 940.248 28.1775 910.972 3.32669 769.38C-22.1192 624.396 168.374 535.499 222.518 398.636C271.04 275.988 221.887 126.878 299.643 20.3723C392.116 -106.293 527.595 -253.264 682.864 -231.919Z" stroke="#492258"/>
<path fill-rule="evenodd" clip-rule="evenodd" d="M690.779 -86.3105C819.534 -68.6161 843.5 115.762 945.539 196.306C1040.74 271.453 1195.71 259.002 1259.21 362.374C1326.51 471.941 1328.02 619.612 1278.44 738.27C1230.4 853.252 1103.16 903.149 1002.57 976.639C901.687 1050.35 815.434 1175.68 690.779 1167.63C566.35 1159.6 504.33 1016.05 406.895 938.195C315.749 865.364 159.072 841.596 138.89 726.638C118.224 608.927 272.933 536.751 316.907 425.633C356.314 326.056 316.394 204.995 379.544 118.523C454.647 15.6846 564.676 -103.64 690.779 -86.3105Z" stroke="#492258"/>
<path fill-rule="evenodd" clip-rule="evenodd" d="M695.091 -16.4988C809.503 -0.776719 830.8 163.05 921.473 234.616C1006.07 301.387 1143.78 290.324 1200.2 382.173C1260 479.527 1261.34 610.738 1217.29 716.17C1174.6 818.335 1061.53 862.671 972.153 927.969C882.505 993.462 805.861 1104.82 695.091 1097.67C584.522 1090.54 529.412 962.989 442.83 893.811C361.838 829.098 222.614 807.979 204.679 705.834C186.315 601.244 323.791 537.114 362.866 438.381C397.883 349.903 362.411 242.336 418.526 165.503C485.263 74.1274 583.035 -31.8969 695.091 -16.4988Z" stroke="#492258"/>
<path fill-rule="evenodd" clip-rule="evenodd" d="M697.71 31.3721C802.268 45.7417 821.731 195.476 904.595 260.886C981.906 321.913 1107.75 311.801 1159.32 395.75C1213.97 484.729 1215.19 604.653 1174.94 701.015C1135.93 794.392 1032.59 834.914 950.91 894.595C868.983 954.455 798.94 1056.23 697.71 1049.7C596.664 1043.18 546.3 926.603 467.175 863.375C393.158 804.229 265.924 784.927 249.535 691.569C232.752 595.975 358.388 537.362 394.098 447.123C426.099 366.256 393.682 267.942 444.964 197.718C505.953 114.202 595.305 17.2985 697.71 31.3721Z" stroke="#492258"/>
<path fill-rule="evenodd" clip-rule="evenodd" d="M700.905 99.1891C791.559 111.643 808.434 241.412 880.278 298.101C947.308 350.991 1056.42 342.228 1101.13 414.983C1148.51 492.098 1149.57 596.033 1114.67 679.547C1080.85 760.473 991.254 795.592 920.434 847.316C849.402 899.194 788.673 987.402 700.905 981.74C613.297 976.088 569.631 875.056 501.028 820.259C436.854 768.999 326.541 752.27 312.33 671.36C297.78 588.512 406.708 537.714 437.669 459.506C465.415 389.421 437.308 304.216 481.771 243.356C534.649 170.975 612.119 86.992 700.905 99.1891Z" stroke="#492258"/>
<path fill-rule="evenodd" clip-rule="evenodd" d="M705.668 226.95C778.131 236.902 791.62 340.599 849.048 385.898C902.628 428.162 989.845 421.16 1025.58 479.298C1063.46 540.919 1064.31 623.972 1036.41 690.707C1009.37 755.375 937.756 783.438 881.147 824.769C824.368 866.225 775.824 936.711 705.668 932.187C635.639 927.67 600.734 846.936 545.898 803.148C494.601 762.187 406.422 748.819 395.063 684.165C383.433 617.962 470.504 577.37 495.252 514.875C517.43 458.872 494.963 390.785 530.504 342.152C572.772 284.314 634.697 217.204 705.668 226.95Z" fill="url(#paint0_linear_1181_1940)"/>
<defs>
<linearGradient id="paint0_linear_1181_1940" x1="394" y1="579.197" x2="1055.86" y2="579.197" gradientUnits="userSpaceOnUse">
<stop stop-color="#EE0979"/>
<stop offset="1" stop-color="#FF6A00"/>
</linearGradient>
</defs>
</svg>
