<svg width="76" height="80" viewBox="0 0 76 80" fill="none" xmlns="http://www.w3.org/2000/svg">
<path d="M0.666016 64V74.6667C0.666016 77.6122 3.05378 80 5.9993 80H69.9993C72.9448 80 75.3324 77.6122 75.3324 74.6667V64H0.666016Z" fill="#B5DBFF"/>
<path d="M71.63 64V74.6669C71.63 77.6122 69.2422 80 66.2969 80H69.9991C72.9446 80 75.3322 77.6122 75.3322 74.6669V64H71.63Z" fill="#97D0FF"/>
<path d="M0.666016 21.3333V69.3333C0.666016 72.2786 3.05378 74.6664 5.99913 74.6664H69.9993C72.9448 74.6664 75.3324 72.2786 75.3324 69.3333V21.3333H0.666016Z" fill="#EDF5FF"/>
<path d="M71.63 21.3333V69.3333C71.63 72.2786 69.2422 74.6664 66.2969 74.6664H69.9991C72.9446 74.6664 75.3322 72.2786 75.3322 69.3333V21.3333H71.63Z" fill="#D5E8FE"/>
<path d="M75.3324 24V10.6666C75.3324 7.72104 72.9446 5.33344 69.9993 5.33344H5.99913C3.05362 5.33344 0.666016 7.7212 0.666016 10.6666V24H75.3324Z" fill="#FF435B"/>
<path d="M16.666 11.874H13.9992C13.3325 11.874 12.792 11.3335 12.792 10.6667C12.792 10 13.3325 9.45949 13.9992 9.45949H16.666C17.3327 9.45949 17.8732 10 17.8732 10.6667C17.8732 11.3335 17.3327 11.874 16.666 11.874Z" fill="#E3374E"/>
<path d="M24.666 11.874H21.9992C21.3325 11.874 20.792 11.3335 20.792 10.6667C20.792 10 21.3325 9.45949 21.9992 9.45949H24.6658C25.3325 9.45949 25.873 10 25.873 10.6667C25.873 11.3335 25.3327 11.874 24.666 11.874Z" fill="#E3374E"/>
<path d="M53.9988 11.874H51.3322C50.6655 11.874 50.125 11.3335 50.125 10.6667C50.125 10 50.6655 9.45949 51.3322 9.45949H53.9988C54.6655 9.45949 55.206 10 55.206 10.6667C55.206 11.3335 54.6655 11.874 53.9988 11.874Z" fill="#E3374E"/>
<path d="M61.9999 11.874H59.3332C58.6665 11.874 58.126 11.3335 58.126 10.6667C58.126 10 58.6665 9.45949 59.3332 9.45949H61.9999C62.6667 9.45949 63.2072 10 63.2072 10.6667C63.2072 11.3335 62.6667 11.874 61.9999 11.874Z" fill="#E3374E"/>
<path d="M16.6652 10.6667C16.6652 12.1394 17.8591 13.3334 19.3319 13.3334C20.8048 13.3334 21.9986 12.1396 21.9986 10.6667V2.66672C21.9985 1.19389 20.8046 2.86102e-06 19.3318 2.86102e-06C17.8591 2.86102e-06 16.665 1.19389 16.665 2.66672V10.6667H16.6652Z" fill="#596C76"/>
<path d="M53.999 10.6667C53.999 12.1394 55.1929 13.3334 56.6657 13.3334C58.1386 13.3334 59.3325 12.1396 59.3325 10.6667V2.66672C59.3325 1.19389 58.1386 2.86102e-06 56.6657 2.86102e-06C55.1929 2.86102e-06 53.999 1.19389 53.999 2.66672V10.6667Z" fill="#596C76"/>
<path d="M69.9991 5.33328H66.2969C69.2424 5.33328 71.63 7.72105 71.63 10.6664V24H75.3322V10.6666C75.3324 7.72105 72.9446 5.33328 69.9991 5.33328Z" fill="#E3374E"/>
<path d="M0.666016 17.4595H75.3326V19.874H0.666016V17.4595Z" fill="#E3374E"/>
<path d="M39.333 42.001C39.333 36.4869 34.8471 32.001 29.333 32.001C23.819 32.001 19.333 36.4869 19.333 42.001C19.333 43.4738 20.5269 44.6677 21.9997 44.6677C23.4726 44.6677 24.6665 43.4738 24.6665 42.001C24.6665 39.4278 26.7598 37.3343 29.3332 37.3343C31.9064 37.3343 33.9999 39.4276 33.9999 42.001C33.9999 44.5743 31.9065 46.6677 29.3332 46.6677C27.8603 46.6677 26.6665 47.8616 26.6665 49.3344C26.6665 50.8073 27.8603 52.0011 29.3332 52.0011C31.9064 52.0011 33.9999 54.0945 33.9999 56.6679C33.9999 59.2411 31.9065 61.3346 29.3332 61.3346C26.76 61.3346 24.6665 59.2412 24.6665 56.6679C24.6665 55.195 23.4726 54.0011 21.9997 54.0011C20.5269 54.0011 19.333 55.195 19.333 56.6679C19.333 62.1819 23.819 66.6679 29.333 66.6679C34.8471 66.6679 39.333 62.1819 39.333 56.6679C39.333 53.7727 38.095 51.1623 36.1222 49.3346C38.0952 47.5065 39.333 44.8961 39.333 42.001Z" fill="#596C76"/>
<path d="M52.1455 32.203C51.1489 31.79 50.0019 32.0185 49.2394 32.7812L43.9061 38.1145C42.8646 39.1557 42.8646 40.8443 43.9061 41.8856C44.9474 42.9268 46.6359 42.9268 47.6772 41.8856L48.4584 41.1044V64C48.4584 65.4728 49.6523 66.6667 51.1251 66.6667C52.5979 66.6667 53.7918 65.4728 53.7918 64V34.6667C53.7917 33.5881 53.1418 32.6157 52.1455 32.203Z" fill="#596C76"/>
</svg>
