<svg width="40" height="40" viewBox="0 0 40 40" fill="none" xmlns="http://www.w3.org/2000/svg">
<g clip-path="url(#clip0_59_1692)">
<path d="M13.9578 9.29659C14.5117 10.3092 15.3573 11.1051 16.1035 11.807C16.2277 11.9238 16.351 12.0398 16.4712 12.1552C16.9345 12.6001 17.4002 13.0261 17.8503 13.4375C18.2904 13.8397 18.7451 14.2557 19.1879 14.6808L19.9996 15.4602L20.8114 14.6808C21.2539 14.256 21.7086 13.8404 22.1484 13.4381C22.5988 13.0264 23.0645 12.6004 23.5281 12.1552C23.648 12.0398 23.7713 11.9241 23.8955 11.8073C24.642 11.1051 25.4876 10.3092 26.0415 9.29659C26.8109 7.88972 26.7852 6.25764 25.9729 4.93074C25.1742 3.62611 23.9328 2.90162 22.4777 2.89064C21.6165 2.88392 20.7727 3.12928 20.0314 3.59681L19.9996 3.61665L19.971 3.59865C19.2361 3.13508 18.4014 2.89064 17.5546 2.89064C17.5436 2.89064 17.5329 2.89064 17.5216 2.89064C16.0665 2.90162 14.8251 3.62611 14.0264 4.93074C13.2141 6.25764 13.1884 7.88972 13.9578 9.29659Z" fill="url(#paint0_linear_59_1692)"/>
<path d="M34.7717 24.7354V20.7654C34.7717 16.9989 31.7075 13.9343 27.9407 13.9343C24.3332 13.9343 21.3702 16.7456 21.1264 20.2924H18.8736C18.6298 16.7456 15.6668 13.9343 12.0593 13.9343C8.29254 13.9343 5.22827 16.9989 5.22827 20.7654V24.7354H0V28.9682C0 32.0013 2.46765 34.469 5.50079 34.469H5.83344V37.0459H8.17719V34.469H10.1544V37.0459H12.4982V34.4592C16.0547 34.2712 18.8904 31.3187 18.8904 27.7161V22.6361H21.1096V27.7161C21.1096 31.3187 23.9453 34.2712 27.5018 34.4592V37.0459H29.8456V34.469H31.8228V37.0459H34.1666V34.469H34.4992C37.5323 34.469 40 32.0013 40 28.9682V24.7354H34.7717ZM14.3945 26.5497C14.3945 28.5059 12.8033 30.0974 10.8472 30.0974H8.72498V27.7536H10.8472C11.5109 27.7536 12.0508 27.2137 12.0508 26.5497V25.3729H14.3945V26.5497ZM14.3945 21.7264H12.0508V19.3826H14.3945V21.7264ZM25.6055 19.3826H27.9492V21.7264H25.6055V19.3826ZM31.275 30.0974H29.1528C27.1967 30.0974 25.6055 28.5059 25.6055 26.5497V25.3729H27.9492V26.5497C27.9492 27.2137 28.4891 27.7536 29.1528 27.7536H31.275V30.0974Z" fill="url(#paint1_linear_59_1692)"/>
</g>
<defs>
<linearGradient id="paint0_linear_59_1692" x1="13.3984" y1="9.17536" x2="26.6009" y2="9.17536" gradientUnits="userSpaceOnUse">
<stop stop-color="#EE0979"/>
<stop offset="1" stop-color="#FF6A00"/>
</linearGradient>
<linearGradient id="paint1_linear_59_1692" x1="-2.23517e-07" y1="25.4901" x2="40" y2="25.4901" gradientUnits="userSpaceOnUse">
<stop stop-color="#EE0979"/>
<stop offset="1" stop-color="#FF6A00"/>
</linearGradient>
<clipPath id="clip0_59_1692">
<rect width="40" height="40" fill="white"/>
</clipPath>
</defs>
</svg>
