<svg width="16" height="20" viewBox="0 0 16 20" fill="none" xmlns="http://www.w3.org/2000/svg">
  <g clip-path="url(#clip0_52_928)">
<path d="M13.8323 0H2.22803C1.28295 0 0.453125 0.777476 0.453125 1.69775V18.8639C0.453125 19.172 0.538862 19.4287 0.67704 19.6271C0.842288 19.8642 1.10836 20.0001 1.39368 20C1.66343 20 1.95064 19.8799 2.21586 19.6534L7.40759 15.2453C7.56794 15.1084 7.79826 15.0299 8.03774 15.0299C8.27712 15.0299 8.50698 15.1084 8.6678 15.2457L13.8422 19.6527C14.1083 19.8799 14.3757 20.0001 14.645 20.0001C15.1004 20.0001 15.5443 19.6488 15.5443 18.864V1.69775C15.5443 0.777476 14.7773 0 13.8323 0Z" fill="url(#paint0_linear_52_928)"/>
</g>
<defs>
<linearGradient id="paint0_linear_52_928" x1="5.04102" y1="4.81703" x2="14.6754" y2="4.81703" gradientUnits="userSpaceOnUse">
<stop stop-color="#EE0979"/>
<stop offset="1" stop-color="#FF6A00"/>
</linearGradient>
<linearGradient id="paint1_linear_52_928" x1="1.64062" y1="14.8304" x2="18.3267" y2="14.8304" gradientUnits="userSpaceOnUse">
<stop stop-color="#EE0979"/>
<stop offset="1" stop-color="#FF6A00"/>
</linearGradient>
<clipPath id="clip0_52_928">
<rect width="19.9999" height="20" fill="white"/>
</clipPath>
</defs>
</svg>
