<svg width="20" height="20" viewBox="0 0 20 20" fill="none" xmlns="http://www.w3.org/2000/svg">
<path d="M6.66678 17.8011C4.44456 17.8011 2.199 15.5555 2.199 13.3333C2.199 13.0261 1.974 12.7778 1.66678 12.7778C1.35956 12.7778 1.08789 13.0261 1.08789 13.3333C1.08789 16.6667 3.33345 18.9122 6.66678 18.9122C6.974 18.9122 7.22233 18.6405 7.22233 18.3333C7.22233 18.0261 6.974 17.8011 6.66678 17.8011Z" fill="#5DADEC"/>
<path d="M3.88889 18.8889C2.22222 18.8889 1.11111 17.7778 1.11111 16.1111C1.11111 15.8039 0.862778 15.5555 0.555556 15.5555C0.248333 15.5555 0 15.8039 0 16.1111C0 18.3333 1.66667 20 3.88889 20C4.19611 20 4.44444 19.7516 4.44444 19.4444C4.44444 19.1372 4.19611 18.8889 3.88889 18.8889ZM13.3333 1.11108C13.0267 1.11108 12.7778 1.35997 12.7778 1.66664C12.7778 1.97331 13.0267 2.2222 13.3333 2.2222C15.5556 2.2222 17.7778 4.21608 17.7778 6.66664C17.7778 6.97331 18.0267 7.2222 18.3333 7.2222C18.64 7.2222 18.8889 6.97331 18.8889 6.66664C18.8889 3.60331 16.6667 1.11108 13.3333 1.11108Z" fill="#5DADEC"/>
<path d="M16.1112 0.0233154C15.8046 0.0233154 15.5557 0.248871 15.5557 0.555538C15.5557 0.862204 15.8046 1.13443 16.1112 1.13443C17.7779 1.13443 18.8657 2.37054 18.8657 3.88887C18.8657 4.19554 19.1373 4.44443 19.4446 4.44443C19.7518 4.44443 19.9768 4.19554 19.9768 3.88887C19.9768 1.7572 18.3334 0.0233154 16.1112 0.0233154Z" fill="#5DADEC"/>
</svg>
